<svg xmlns="http://www.w3.org/2000/svg" viewBox="0 0 44 44"><title>music-4@1x</title><g id="Layer_2" data-name="Layer 2"><g id="Miscellaneous"><g id="Music_Note_in_a_Square_1_2x.png" data-name="Music Note in a Square 1@2x.png"><path d="M31,9a1.08,1.08,0,0,0-.15,0V9l-7.46-.93A1,1,0,0,0,23,8l-.09,0h-.06V8A1,1,0,0,0,22,9V27a5,5,0,0,0-3-1H17a5,5,0,0,0,0,10h2a5,5,0,0,0,5-5V16.09l6.61.83A1,1,0,0,0,31,17l.09,0h.06v0A1,1,0,0,0,32,16V10A1,1,0,0,0,31,9ZM19,34H17a3,3,0,0,1,0-6h2a3,3,0,0,1,0,6ZM30,14.91l-6-.75V10.09l6,.75ZM40,0H4A4,4,0,0,0,0,4V40a4,4,0,0,0,4,4H40a4,4,0,0,0,4-4V4A4,4,0,0,0,40,0Zm2,40a2,2,0,0,1-2,2H4a2,2,0,0,1-2-2V4A2,2,0,0,1,4,2H40a2,2,0,0,1,2,2Z"/></g></g></g></svg>