<svg id="Icons" xmlns="http://www.w3.org/2000/svg" viewBox="0 0 66 66"><defs><style>.cls-1{fill:#349f59;}.cls-2{fill:#3dbb69;}.cls-3{opacity:0.15;}.cls-4{fill:#fffcf2;}.cls-5{opacity:0.15;}.cls-6{fill:#344e5f;}.cls-7{fill:#4c7aae;}</style></defs><title>camera</title><g id="Camera"><g id="Circle_Shadow" data-name="Circle Shadow"><circle class="cls-1" cx="33" cy="34" r="31"/></g><g id="Circle"><circle class="cls-2" cx="33" cy="32" r="31"/></g><path id="Long_Shadow" data-name="Long Shadow" class="cls-3" d="M15.59,45.41,33.17,63a31,31,0,0,0,30.75-28.9L50.41,20.58Z"/><g id="Camera-2" data-name="Camera"><path class="cls-4" d="M49,20H43l-4-4H27l-4,4H17a2,2,0,0,0-2,2V44a2,2,0,0,0,2,2H49a2,2,0,0,0,2-2V22A2,2,0,0,0,49,20Z"/></g><g id="Line" class="cls-5"><rect class="cls-6" x="15" y="28" width="36" height="2"/></g><g id="Lens_Border" data-name="Lens Border"><circle class="cls-6" cx="33" cy="33" r="8"/></g><g id="Lens"><circle class="cls-7" cx="33" cy="33" r="6"/></g><g id="Button"><circle class="cls-6" cx="46" cy="25" r="1"/></g></g></svg>