<?xml version="1.0" encoding="UTF-8"?>
<svg width="25px" height="21px" viewBox="0 0 25 21" version="1.1" xmlns="http://www.w3.org/2000/svg" xmlns:xlink="http://www.w3.org/1999/xlink">
    <!-- Generator: Sketch 42 (36781) - http://www.bohemiancoding.com/sketch -->
    <title>camera</title>
    <desc>Created with Sketch.</desc>
    <defs></defs>
    <g id="Page-1" stroke="none" stroke-width="1" fill="none" fill-rule="evenodd">
        <g id="Filled" transform="translate(-50.000000, -102.000000)" fill="#000000">
            <g id="camera" transform="translate(50.000000, 102.000000)">
                <path d="M12.5,8 C10.57,8 9,9.57 9,11.5 C9,13.43 10.57,15 12.5,15 C14.43,15 16,13.43 16,11.5 C16,9.57 14.43,8 12.5,8" id="Fill-1"></path>
                <path d="M20,6 C20.551,6 21,6.449 21,7 C21,7.551 20.551,8 20,8 C19.449,8 19,7.551 19,7 C19,6.449 19.449,6 20,6 L20,6 Z M6.182,10 C6.861,7.138 9.433,5 12.5,5 C15.567,5 18.139,7.138 18.818,10 L25,10 L25,6.5 C25,5.122 23.879,4 22.5,4 L21.584,4 C19.857,4 19.14,3.213 18.309,2.302 C17.325,1.223 16.21,0 13.416,0 L11.584,0 C8.79,0 7.675,1.223 6.691,2.302 C5.86,3.213 5.143,4 3.416,4 L2.5,4 C1.121,4 0,5.122 0,6.5 L0,10 L6.182,10 Z" id="Fill-3"></path>
                <path d="M18.9746,11 C18.9876,11.166 18.9996,11.331 18.9996,11.5 C18.9996,15.084 16.0836,18 12.4996,18 C8.9156,18 5.9996,15.084 5.9996,11.5 C5.9996,11.331 6.0126,11.166 6.0256,11 L-0.0004,11 L-0.0004,18.5 C-0.0004,19.878 1.1206,21 2.4996,21 L22.4996,21 C23.8786,21 24.9996,19.878 24.9996,18.5 L24.9996,11 L18.9746,11 Z" id="Fill-5"></path>
                <path d="M12.5,16 C10.019,16 8,13.981 8,11.5 C8,9.019 10.019,7 12.5,7 C14.981,7 17,9.019 17,11.5 C17,13.981 14.981,16 12.5,16 M12.5,6 C9.467,6 7,8.467 7,11.5 C7,14.533 9.467,17 12.5,17 C15.533,17 18,14.533 18,11.5 C18,8.467 15.533,6 12.5,6" id="Fill-8"></path>
            </g>
        </g>
    </g>
</svg>