<svg xmlns="http://www.w3.org/2000/svg" viewBox="0 0 44 44"><title>video@1x</title><g id="Layer_2" data-name="Layer 2"><g id="General"><g id="Video_1_2x.png" data-name="Video 1@2x.png"><path d="M4,14H6V12H4Zm0,4H6V16H4Zm0-8H6V8H4ZM6,30H4v2H6ZM38,14h2V12H38ZM6,26H4v2H6ZM6,38H4v2H6Zm0-4H4v2H6ZM4,6H6V4H4ZM40,34H38v2h2ZM38,10h2V8H38Zm2,28H38v2h2ZM38,18h2V16H38ZM38,6h2V4H38Zm2-6H4A4,4,0,0,0,0,4V40a4,4,0,0,0,4,4H40a4,4,0,0,0,4-4V4A4,4,0,0,0,40,0ZM8,42H4a2,2,0,0,1-2-2V23H8ZM8,21H2V4A2,2,0,0,1,4,2H8ZM34,42H10V23H34Zm0-21H10V2H34Zm8,19a2,2,0,0,1-2,2H36V23h6Zm0-19H36V2h4a2,2,0,0,1,2,2Zm-2,9H38v2h2Zm0-4H38v2h2Z"/></g></g></g></svg>