<svg id="Icons" xmlns="http://www.w3.org/2000/svg" viewBox="0 0 66 66"><defs><style>.cls-1{fill:#349f59;}.cls-2{fill:#3dbb69;}.cls-3{opacity:0.15;}.cls-4{fill:#fffcf2;}.cls-5{fill:#344e5f;}</style></defs><title>video</title><g id="Video"><g id="Circle_Shadow" data-name="Circle Shadow"><circle class="cls-1" cx="33" cy="34" r="31"/></g><g id="Circle"><circle class="cls-2" cx="33" cy="32" r="31"/></g><path id="Long_Shadow" data-name="Long Shadow" class="cls-3" d="M64,32.15,48.41,16.59l-29.87.08-1,30.72L33.16,63A31,31,0,0,0,64,32.15Z"/><g id="Video_Frame" data-name="Video Frame"><rect class="cls-4" x="17" y="16" width="32" height="32" rx="2" ry="2"/></g><g id="Film"><path class="cls-5" d="M19,22h4V18H19Zm0,6h4V24H19Zm0,6h4V30H19Zm0,6h4V36H19Zm0,6h4V42H19ZM43,18v4h4V18Zm0,10h4V24H43Zm0,6h4V30H43Zm0,6h4V36H43Zm0,6h4V42H43ZM25,31H41V18H25Zm0,15H41V33H25Z"/></g></g></svg>