<?xml version="1.0" encoding="UTF-8"?>
<svg width="25px" height="19px" viewBox="0 0 25 19" version="1.1" xmlns="http://www.w3.org/2000/svg" xmlns:xlink="http://www.w3.org/1999/xlink">
    <!-- Generator: Sketch 42 (36781) - http://www.bohemiancoding.com/sketch -->
    <title>tv</title>
    <desc>Created with Sketch.</desc>
    <defs></defs>
    <g id="Page-1" stroke="none" stroke-width="1" fill="none" fill-rule="evenodd">
        <g id="Filled" transform="translate(-50.000000, -503.000000)" fill="#000000">
            <g id="tv" transform="translate(50.000000, 503.000000)">
                <path d="M18.5,18 L6.5,18 C6.224,18 6,18.224 6,18.5 C6,18.776 6.224,19 6.5,19 L18.5,19 C18.776,19 19,18.776 19,18.5 C19,18.224 18.776,18 18.5,18" id="Fill-1"></path>
                <polygon id="Fill-3" points="10 11.6387 15.492 8.4997 10 5.3617"></polygon>
                <path d="M16.748,8.9346 L9.748,12.9346 C9.671,12.9786 9.586,12.9996 9.5,12.9996 C9.413,12.9996 9.326,12.9776 9.249,12.9326 C9.095,12.8426 9,12.6786 9,12.4996 L9,4.4996 C9,4.3216 9.095,4.1576 9.249,4.0676 C9.402,3.9776 9.593,3.9776 9.748,4.0656 L16.748,8.0656 C16.904,8.1556 17,8.3206 17,8.4996 C17,8.6796 16.904,8.8446 16.748,8.9346 M24.5,-0.0004 L0.5,-0.0004 C0.224,-0.0004 0,0.2236 0,0.4996 L0,16.4996 C0,16.7766 0.224,16.9996 0.5,16.9996 L24.5,16.9996 C24.776,16.9996 25,16.7766 25,16.4996 L25,0.4996 C25,0.2236 24.776,-0.0004 24.5,-0.0004" id="Fill-5"></path>
            </g>
        </g>
    </g>
</svg>